<svg width="26" height="18" viewBox="0 0 26 18" fill="none" xmlns="http://www.w3.org/2000/svg">
<path fill-rule="evenodd" clip-rule="evenodd" d="M26 9C26 8.74955 25.9022 8.50936 25.728 8.33227C25.5539 8.15518 25.3177 8.05569 25.0715 8.05569H3.1716L9.01566 2.11408C9.10198 2.02628 9.17047 1.92205 9.21719 1.80733C9.26391 1.69262 9.28796 1.56967 9.28796 1.4455C9.28796 1.32134 9.26391 1.19839 9.21719 1.08368C9.17047 0.968962 9.10198 0.86473 9.01566 0.776932C8.92933 0.689133 8.82684 0.619488 8.71405 0.571972C8.60125 0.524456 8.48036 0.5 8.35827 0.5C8.23618 0.5 8.11529 0.524456 8.00249 0.571972C7.8897 0.619488 7.78721 0.689133 7.70088 0.776932L0.272785 8.33143C0.186316 8.41914 0.117712 8.52335 0.0709035 8.63808C0.0240945 8.7528 0 8.87579 0 9C0 9.12421 0.0240945 9.2472 0.0709035 9.36192C0.117712 9.47665 0.186316 9.58085 0.272785 9.66857L7.70088 17.2231C7.78721 17.3109 7.8897 17.3805 8.00249 17.428C8.11529 17.4755 8.23618 17.5 8.35827 17.5C8.48036 17.5 8.60125 17.4755 8.71405 17.428C8.82684 17.3805 8.92933 17.3109 9.01566 17.2231C9.10198 17.1353 9.17047 17.031 9.21719 16.9163C9.26391 16.8016 9.28796 16.6787 9.28796 16.5545C9.28796 16.4303 9.26391 16.3074 9.21719 16.1927C9.17047 16.078 9.10198 15.9737 9.01566 15.8859L3.1716 9.94431H25.0715C25.3177 9.94431 25.5539 9.84482 25.728 9.66773C25.9022 9.49064 26 9.25045 26 9Z" fill="white"/>
</svg>
